<?xml version="1.0" standalone="no"?>
<!DOCTYPE svg PUBLIC "-//W3C//DTD SVG 20010904//EN"
 "http://www.w3.org/TR/2001/REC-SVG-20010904/DTD/svg10.dtd">
<svg version="1.0" xmlns="http://www.w3.org/2000/svg"
 width="260.000000pt" height="260.000000pt" viewBox="0 0 260.000000 260.000000"
 preserveAspectRatio="xMidYMid meet">
<metadata>
Created by potrace 1.11, written by Peter Selinger 2001-2013
</metadata>
<g transform="translate(0.000000,260.000000) scale(0.100000,-0.100000)"
fill="#000000" stroke="none">
<path d="M1135 2523 c-626 -80 -1066 -678 -970 -1317 37 -245 147 -458 327
-632 104 -101 181 -156 295 -213 166 -82 311 -115 498 -115 301 1 569 116 790
340 301 303 400 741 265 1169 -98 310 -383 603 -691 711 -152 53 -363 77 -514
57z m300 -88 c321 -52 613 -263 764 -554 173 -332 159 -730 -38 -1060 -77
-130 -245 -288 -393 -369 -240 -131 -544 -160 -803 -76 -167 55 -296 134 -426
264 -435 430 -404 1163 64 1557 241 202 535 287 832 238z"/>
<path d="M1080 2391 c-212 -48 -381 -142 -531 -298 -172 -178 -266 -399 -276
-655 -9 -203 22 -350 109 -523 40 -80 116 -191 124 -182 3 3 -20 49 -51 102
-159 276 -200 528 -130 799 50 191 138 340 285 479 136 129 290 209 484 252
121 27 377 13 471 -25 11 -4 52 -21 90 -36 79 -31 104 -49 90 -63 -6 -6 -67
-21 -136 -35 -70 -14 -146 -33 -169 -41 -66 -23 -78 -20 -86 20 -10 56 -39 85
-83 85 -60 0 -89 -29 -93 -93 l-3 -52 -55 -16 c-169 -48 -280 -115 -375 -226
-96 -112 -150 -210 -175 -316 -26 -111 -29 -275 -7 -366 17 -67 15 -110 -13
-360 -5 -46 -8 -87 -6 -90 2 -3 62 -3 133 1 70 4 144 8 163 9 21 1 62 -11 103
-30 110 -52 154 -62 290 -68 225 -10 333 22 486 143 52 41 92 65 118 70 53 9
141 43 184 69 34 22 35 25 47 116 7 52 21 184 32 294 11 110 23 215 26 234 l7
34 -76 -7 c-70 -7 -76 -6 -87 13 -14 28 -5 41 28 41 26 0 26 2 -18 40 -50 44
-52 46 -183 180 -62 65 -119 111 -174 145 -46 28 -83 53 -83 58 0 9 23 19 135
52 50 15 104 33 122 41 17 8 38 14 46 14 20 0 184 -172 234 -245 116 -172 172
-356 173 -565 0 -136 -11 -211 -46 -317 -87 -258 -258 -455 -500 -577 -191
-95 -418 -128 -610 -87 -176 38 -303 99 -455 217 -74 59 -95 56 -29 -3 119
-107 274 -190 430 -229 60 -15 110 -19 245 -18 155 0 178 3 259 28 171 52 309
134 436 258 370 359 401 960 72 1369 -131 163 -346 301 -542 349 -125 31 -319
36 -430 11z m233 -169 c37 -33 9 -102 -42 -102 -48 0 -78 41 -61 85 16 43 63
51 103 17z m291 -67 c-188 -62 -239 -91 -295 -168 -29 -40 -38 -90 -18 -103 6
-3 71 -17 145 -29 168 -29 375 -80 432 -107 23 -11 41 -22 40 -23 -2 -2 -25 1
-53 6 -142 26 -267 40 -420 46 l-171 6 -38 -44 c-89 -104 -186 -286 -260 -492
-18 -49 -36 -54 -36 -10 0 15 3 23 7 20 3 -4 18 39 33 96 15 56 31 111 35 122
39 104 79 201 104 255 24 51 31 78 31 127 0 115 -35 119 -228 23 -68 -34 -126
-59 -129 -56 -7 6 70 61 152 108 150 86 377 172 610 233 185 49 218 43 59 -10z
m186 -575 c0 -5 -4 -10 -10 -10 -5 0 -10 5 -10 10 0 6 5 10 10 10 6 0 10 -4
10 -10z m86 -27 c-10 -34 -67 -575 -62 -589 3 -8 11 -12 18 -10 7 3 54 7 103
11 77 5 88 4 75 -8 -36 -34 -119 -57 -241 -66 -68 -6 -146 -14 -174 -19 -27
-5 -87 -13 -132 -16 l-82 -7 -28 50 c-15 28 -34 51 -42 51 -11 0 -12 15 -6 77
8 89 16 115 31 105 6 -4 37 -52 68 -107 32 -55 63 -105 69 -112 9 -8 38 -8
122 0 l110 12 7 50 c4 28 19 154 33 280 30 272 33 285 48 279 7 -2 26 5 42 16
37 25 48 25 41 3z m-310 -8 c-3 -8 -12 -68 -21 -132 -24 -178 -24 -178 -75
-87 -23 40 -29 58 -21 67 5 7 13 32 17 55 5 31 16 51 45 77 41 37 65 45 55 20z
m-421 -112 c-25 -206 -44 -316 -56 -324 -8 -5 -29 -9 -47 -9 -31 0 -33 2 -28
28 5 24 46 289 46 298 0 5 81 64 87 64 3 0 1 -26 -2 -57z m-410 35 c-3 -7 -9
-49 -14 -93 -5 -44 -22 -180 -37 -303 -17 -135 -24 -226 -18 -231 5 -5 93 1
197 12 177 19 188 19 206 3 17 -15 29 -16 110 -7 50 5 96 13 102 17 7 4 10 -1
7 -11 -1 -10 -23 -28 -48 -41 -55 -29 -249 -46 -274 -24 -16 12 -115 5 -305
-21 -43 -6 -77 -7 -82 -2 -6 6 -5 48 1 104 5 52 19 182 30 289 26 258 26 255
63 290 32 30 70 41 62 18z"/>
<path d="M179 821 c-22 -17 -22 -21 -9 -47 13 -27 14 -28 18 -7 2 12 10 27 18
33 15 14 19 40 5 40 -5 0 -19 -8 -32 -19z"/>
<path d="M2309 801 c-13 -15 -19 -37 -17 -55 2 -25 8 -31 27 -31 28 0 66 62
57 92 -8 27 -45 23 -67 -6z m38 -27 c8 -21 -13 -42 -28 -27 -13 13 -5 43 11
43 6 0 13 -7 17 -16z"/>
<path d="M221 749 c-14 -12 -21 -25 -17 -35 5 -13 9 -13 31 3 24 18 32 38 17
46 -4 3 -18 -3 -31 -14z"/>
<path d="M252 700 c-26 -24 -27 -33 -7 -50 12 -10 15 -10 15 3 0 8 7 20 15 27
16 13 21 40 7 40 -5 0 -18 -9 -30 -20z"/>
<path d="M2256 685 c4 -18 2 -25 -8 -25 -8 0 -23 -6 -34 -14 -19 -14 -19 -15
5 -40 28 -30 44 -25 35 10 -4 17 -2 24 8 24 8 0 23 6 33 14 19 14 19 15 1 35
-27 30 -48 28 -40 -4z"/>
<path d="M302 642 c-26 -23 -28 -45 -7 -62 12 -10 15 -9 15 5 0 10 8 27 17 37
24 27 3 44 -25 20z"/>
<path d="M352 577 c-27 -29 -27 -39 -2 -62 18 -16 20 -16 20 -2 0 10 5 17 11
17 6 0 9 7 6 14 -4 10 -1 13 9 9 20 -7 18 11 -4 30 -17 16 -20 15 -40 -6z"/>
<path d="M2170 593 c0 -5 9 -19 20 -33 25 -33 48 -16 24 18 -14 21 -44 31 -44
15z"/>
<path d="M2139 565 c-1 -6 -2 -19 -3 -30 -1 -13 -9 -21 -26 -23 -37 -5 -44
-17 -25 -46 23 -34 48 -35 39 -1 -6 23 -3 25 25 25 43 0 51 25 17 58 -14 15
-26 22 -27 17z"/>
<path d="M447 472 c-25 -28 -22 -45 8 -38 20 5 25 3 25 -13 0 -56 31 -68 55
-22 16 32 4 54 -18 32 -9 -9 -14 -4 -23 21 -13 39 -25 44 -47 20z"/>
<path d="M2023 453 c-18 -7 -16 -24 7 -53 18 -23 20 -24 36 -8 15 15 15 18 -2
42 -20 27 -22 27 -41 19z"/>
<path d="M1948 396 c-23 -17 -23 -38 1 -67 l18 -23 12 22 c6 12 19 22 27 22 9
0 13 5 10 13 -3 6 -9 20 -12 30 -7 20 -32 22 -56 3z"/>
<path d="M558 374 c-32 -17 -37 -34 -10 -34 10 0 31 -13 45 -30 37 -41 47 -38
47 15 0 34 -5 47 -19 55 -25 13 -30 12 -63 -6z"/>
<path d="M1847 330 c-30 -24 -35 -51 -11 -71 13 -11 22 -10 52 6 30 16 37 26
37 50 0 25 -4 31 -26 33 -14 2 -37 -6 -52 -18z m48 -26 c0 -12 -8 -20 -22 -22
-25 -4 -31 16 -11 36 17 17 33 10 33 -14z"/>
<path d="M693 291 c5 -25 4 -29 -11 -25 -12 4 -10 -1 7 -15 33 -29 46 -22 46
25 0 34 -3 39 -24 42 -22 3 -23 1 -18 -27z"/>
<path d="M779 287 c0 -1 -2 -21 -5 -44 -5 -49 9 -56 28 -15 18 36 31 32 44
-15 13 -46 32 -52 64 -18 26 28 20 46 -10 27 -26 -16 -28 -15 -32 9 -2 13 -19
27 -45 39 -24 10 -43 18 -44 17z"/>
<path d="M1753 279 c-13 -13 2 -69 18 -69 15 0 22 27 15 55 -7 27 -16 31 -33
14z"/>
<path d="M1674 244 c-18 -14 -18 -15 5 -34 13 -11 18 -20 12 -20 -7 0 -10 -4
-6 -10 9 -15 55 11 55 32 0 10 -4 18 -9 18 -5 0 -16 7 -24 14 -13 13 -17 13
-33 0z"/>
<path d="M1590 226 c0 -2 7 -20 16 -41 18 -44 38 -35 28 13 -5 22 -12 32 -25
32 -11 0 -19 -2 -19 -4z"/>
<path d="M944 195 c-8 -33 1 -55 23 -55 14 0 18 9 19 40 1 33 -2 40 -17 40
-12 0 -21 -10 -25 -25z"/>
<path d="M1024 175 c-10 -40 1 -55 40 -55 26 0 38 6 46 21 15 28 -12 59 -51
59 -22 0 -30 -6 -35 -25z m61 -15 c0 -8 -8 -16 -17 -18 -13 -2 -18 3 -18 18 0
15 5 20 18 18 9 -2 17 -10 17 -18z"/>
<path d="M1456 164 c-20 -43 -15 -51 19 -36 14 6 38 9 54 6 16 -4 32 -1 35 5
4 6 2 11 -3 11 -6 0 -11 5 -11 11 0 18 -28 39 -52 39 -18 0 -29 -10 -42 -36z"/>
<path d="M1344 176 c-3 -8 -4 -25 -2 -37 2 -19 10 -23 39 -24 33 -2 36 0 36
29 0 17 -5 34 -11 38 -19 13 -56 9 -62 -6z"/>
<path d="M1184 166 c-8 -21 -1 -61 11 -61 6 0 11 17 13 38 3 37 -13 52 -24 23z"/>
<path d="M1234 166 c-3 -8 -4 -25 -2 -38 4 -31 46 -36 79 -9 23 19 24 19 5 40
-22 24 -74 28 -82 7z m59 -32 c-8 -20 -33 -17 -33 4 0 10 3 22 7 25 10 11 32
-13 26 -29z"/>
</g>
</svg>
